<svg xmlns="http://www.w3.org/2000/svg" width="308" height="304"><style>.b{fill:#35495f;}.f{fill:#e9c012;}@media (prefers-color-scheme: light) {.f{fill:#35495f;}.b{fill:#e9c012;}}</style> <path class="b" d="M0 0h308v304H0z"/><path d="M136 197v8c-6 0-15-1-18 6 0 2 0 7 0 10h72c0-2 .886-7 0-10-2-7-11-6-18-6v-8h36c3 0 10 1 13-1 4-3 2-15 2-21v-57c0-5 2-16-2-20-2-1-6-1-9-1h-23-70-21c-2 0-6 0-9 0-6 2-4 15-4 22v56c0 4-1 16 1 20 2 3 9 2 13 2h37m81-93v68h-126v-68h126m0 75v11h-126v-11h126m-15 2v7h6v-7h-6m-36 16v8h-24v-8h24m18 16c-2 2-11 1-16 1h-44c2-3 9-2 14-2h32c4 0 10 0 14 1" class="f"/></svg>
