<svg xmlns="http://www.w3.org/2000/svg" width="308.22" height="304.961"><path fill="#35495f" d="M0 0h308.22v304.961H0z"/><path d="M136.11 197.125v8c-6.502 0-15.553-1.341-18 6-.886 2.657 0 7.174 0 10h72c0-2.826.886-7.343 0-10-2.379-7.137-11.582-6-18-6v-8h36c3.573 0 10.319 1.145 13-1 4.128-3.302 2-15.813 2-21v-57c0-5.039 2.022-16.783-2-20-2.065-1.652-6.235-1-9-1h-23-70-21c-2.543 0-6.609-.797-9 0-6.503 2.168-4 15.975-4 22v56c0 4.907-1.942 16.322 1 20 2.562 3.202 9.066 2 13 2h37m81-93v68h-126v-68h126m0 75v11h-126v-11h126m-15 2v7h6v-7h-6m-36 16v8h-24v-8h24m18 16c-2.29 2.29-11.783 1-16 1h-44c2.062-3.436 9.647-2 14-2h32c4.474 0 10.233-.883 14 1" fill="#e9c012"/></svg>
