<svg xmlns="http://www.w3.org/2000/svg" width="1200" height="1200"><style>.f{fill:#e9c012;stroke:#e9c012;transition: filter 3s;animation: glow 3s infinite alternate;}@keyframes glow {100%{filter:drop-shadow( 0px 0px 500px #e9c012);}}.f:hover{filter:drop-shadow( 0px 0px 1000px #e9c012);}</style><path d="M582 557v8c-6.502 0-15.553-1.341-18 6-.886 2.657 0 7.174 0 10h72c0-2.826.886-7.343 0-10-2.379-7.137-11.582-6-18-6v-8h36c3.573 0 10.319 1.145 13-1 4.128-3.302 2-15.813 2-21v-57c0-5.039 2.022-16.783-2-20-2.065-1.652-6.235-1-9-1h-23-70-21c-2.543 0-6.609-.797-9 0-6.503 2.168-4 15.975-4 22v56c0 4.907-1.942 16.322 1 20 2.562 3.202 9.066 2 13 2h37m81-93v68H537v-68h126m0 75v11H537v-11h126m-15 2v7h6v-7h-6m-36 16v8h-24v-8h24m-372 5v16h270v-16H240m450 0v16h270v-16H690m-60 11c-2.29 2.29-11.783 1-16 1h-44c2.062-3.436 9.647-2 14-2h32c4.474 0 10.233-.883 14 1m-310 58c0 1.81.437 4.253 0 6-.327 1.306-2.08 4.2-1 6 1.85 3.084 7.133 2.1 8 6-.033-.149-1 2.35-1 3 0 2.278 1 4.159 1 7h-1c0 2.61.509 1.543 1 4l-1 1c0 2.278 1 4.159 1 7h-1l1 2h-1l1 2h-1c0 3.544.314 4.572 1 8h-1l1 2h-1c0 3.544.314 4.572 1 8h-1l1 2h-1c0 3.544.314 4.572 1 8h-1c0 1.721 1.342 2.634 1 4-.532 2.128-6.528 2.547-8 5-.995 1.658.713 3.851 1 5 .51 2.04 0 4.887 0 7h33l1-12c-1.924-.962-6.97-2.734-8-5-.692-1.523 1-2.077 1-3 0-1.471-1-1.529-1-3l1-2-1-1c.826-5.784 0-9.468 0-16h30v18c0 1.621.756 5.615 0 7-1.275 2.338-5.901 3.951-8 5 0 1.896.372 10.915 2 12 1.32.88 6.344 0 8 0h24c0-1.81-.437-4.252 0-6 .327-1.306 2.08-4.199 1-6-1.684-2.807-7.547-1.92-8-6h1c.628-3.771-1-4.598-1-8h1c.283-1.696-1-2.97-1-4 0 .49 1.113-1.866 1-3-.379-3.787.595-8.215-1-13h1c.283-1.696-1-2.97-1-4h1c.211-1.269-1.071-3.573-1-4h1c.211-1.269-1.071-3.573-1-4h1c.608-1.825-.557-2.671-1-4h1c.283-1.696-1-2.97-1-4h1c.211-1.269-1.071-3.573-1-4 .004-.023 1.105-4.628 1-4 .12-.719-.367-2.388 0-3 1.222-2.037 5.773-2.159 7-4 1.13-1.695-.695-4.781-1-6-.437-1.748 0-4.19 0-6h-33c0 2.463.532 5.605 0 8-.244 1.097-1.658 1.421-1 3 1.498 3.594 6.291 2.866 8 6 .536.983 0 3.851 0 5 0 3.726 1.706 12.979-2 15-.983.536-3.851 0-5 0h-12c-3.942 0-7.591.136-11-1 1.228-3.685 0-7.373 0-11 0-3.457 1.177-5.469 0-9 2.42-.807 6.598-2.197 8-5 .824-1.647-.752-2.883-1-4-.466-2.095 0-4.846 0-7h-33m173 0c0 1.81.437 4.253 0 6-.327 1.306-2.08 4.2-1 6 1.85 3.084 7.133 2.1 8 6-.033-.149-1 2.35-1 3 0 2.278 1 4.159 1 7h-1c0 2.61.509 1.543 1 4l-1 1c0 2.278 1 4.159 1 7h-1l1 2h-1l1 2h-1c0 3.544.314 4.572 1 8h-1l1 2h-1c0 3.544.314 4.572 1 8h-1l1 2h-1c0 3.544.314 4.572 1 8h-1c0 1.721 1.342 2.634 1 4-.532 2.128-6.528 2.547-8 5-.995 1.658.713 3.851 1 5 .51 2.04 0 4.887 0 7h27c2.072 0 8.348 1.102 10 0 1.701-1.134 1-4.172 1-6 0-1.473 1.286-4.143 1-5-1.46-4.381-9.708-4.903-13-6 1.273-3.82 1.273-11.18 0-15 13.246 0 25.871.419 37-7 10.397-6.931 12.789-20.843 10-32-1.513-6.051-1.9-11.933-8-16-4.839-3.226-10.341-3.585-16-5-14.485-3.621-33.57-1-49-1m158 0v20c2.875 0 8.359 1.641 10 0 1.271-1.271.818-3.81 3-5 2.976-1.623 11.518 0 15 0v44 12c0 1.149.536 4.018 0 5-1.58 2.897-5.42 2.103-7 5-1.576 2.889.571 9.424 1 12h32c0-6.359 3.996-15-6-15v-63h11c.857 0 3.288-.427 4 0 2.066 1.24 1.347 5.035 4 6l2-1c2.086-.298 5.661 1.008 7-1 .545-.817 0-3.976 0-5v-14h-76m155 93h32c0-7.781 3.018-13.497-6-15 4.159-8.318 6.857-18.286 12-26 2.995 8.984 9.438 17.627 11 27-7.812 1.302-4 7.762-4 14h15 12c1.023 0 4.183.545 5 0 1.137-.758 2.257-9.844 2-11-.13-.584-2.482-2.654-3-3-1.267-.845-3.822-1.058-5-2-2.562-2.049-3.648-6.297-5-9-2.75-5.501-6.276-10.552-9-16-.816-1.631-5.179-6.389-5-8l2-1c.848-1.979 1.859-3.044 3-5 3.121-5.35 6.791-10.499 10-16 1.213-2.079 1.504-4.336 4-6 1.891-1.26 6.679-2.019 8-4 1.044-1.565-.733-3.931-1-5-.51-2.04 0-4.887 0-7h-32c0 3.106-2.65 9.25-1 12 .923 1.539 4.47 2.49 6 3-2.262 6.786-9 13.521-9 21-4.484-2.69-6.608-11.217-9-16-.431-.861-3.177-4.203-3-5 .129-.58 4.437-2.061 5-3 1.65-2.75-1-8.894-1-12h-14-13c-1.024 0-4.183-.545-5 0-2.23 1.487-.66 6.617-1 9l-1 2c1.189 3.568 6.813 3.813 9 6 5.172 5.172 8.408 13.842 12 20 1.264 2.167 5.447 5.321 5 8-.251 1.504-2.252 2.654-3 4l-4 7c-3.45 5.914-5.987 13.481-10 19-2.462 3.385-7.883 2.118-10 6-1.61 2.952 1 8.744 1 12m-287-48c1.685-10.111 0-19.579 0-30 6.671 0 16.756-1.496 22 2 7.822 5.215 7.17 22.234-1 27-2.336 1.363-5.326.331-8 1-3.874.969-9.131 1.935-13 0m-65 10c-10.813 0-23.503-1.664-32 4-10.225 6.817-7.468 25.688 2 32 6.936 4.624 23.055 4.63 30 0 1.829-1.219 3.441-3.441 5-5 0 2.356-.015 6.657 2 8 .817.545 3.976 0 5 0 4.571 0 8.079-.693 12-2 1.483-.494 1.851.723 3-1 .545-.817 0-3.976 0-5 0-6.194-.102-9-7-9 0-10.816.442-25.068-1-33-.815-4.482-.521-8.282-3-12-2.893-4.34-6.712-4.928-11-6-10.054-2.514-20.219-2.26-30 1-2.718.906-8.33 1.217-10 4-1.577 2.629.433 9.733 1 12 .367 1.469-.269 4.048 1 5 1.164.873 6.462 0 8 0 1.148 0 5.131.652 6 0 2.667-2-.549-6.742 3-9 4.941-3.144 14.199.596 16 6 .886 2.657 0 7.174 0 10m337 20c-7.813 1.302-13.645 5.089-22 3-2.919-.73-5.835-.594-8-3-2.729-3.032-2.775-7.326-4-11h24c3.437 0 8.231.615 11-1 4.797-2.798 4-8.17 4-13 0-9.156-2.698-18.157-11-23-2.666-1.555-7.008-2.252-10-3-3.523-.881-8.049.262-11 1-5.997 1.499-10.987 2.24-16 6-9.961 7.471-12.888 24.447-10 36 .392 1.569-.392 3.431 0 5 1.212 4.849 4.057 11.451 8 15 9.095 8.185 25.502 8.833 37 5 3.249-1.083 9.031-1.39 11-5 1.578-2.893-2.17-9.51-3-12m-214-50c-.406 2.437-2.629 9.286-1 12 1.812 3.019 7.132 2.598 9 5v2c2.278 3.987 3.27 7.847 5 12 4.36 10.464 9.64 20.537 14 31 2.821 6.771 2.015 10.977-2 17-1.802 2.704-2.305 4-6 4 0-2.122.07-6.396-1-8-.931-1.397-11.417-2.055-13-1-1.723 1.149-.506 1.517-1 3-.982 2.945-4.015 10.306-2 14 1.549 2.839 5.481 3.16 8 4 9.094 3.031 20.042.944 26-7 4.827-6.437 6.977-14.745 10-22l17-40c1.098-2.635 2.72-8.176 5-10 1.945-1.556 6.571-1.618 8-4 1.759-2.932-1-8.95-1-12h-22c-1.538 0-6.836-.873-8 0-1.395 1.046-.856 4.276-1 6-.136 1.635-1.643 3.457-1 5 1.141 2.738 4.671 3.612 7 4-1.947 11.683-10 21.528-10 34-3.673-2.204-2.694-6.082-4-10-2.69-8.069-6.301-15.903-9-24 5.788-1.929 5.424-3.908 5-9-.158-1.894.812-4.792-1-6-1.32-.88-6.344 0-8 0h-23m201 26l-21 1c1.253-3.758 1.352-9.347 5-12 4.293-3.122 13.814-2.248 16 3 .795 1.907 0 5.904 0 8m-324 14c0 2.645 1.316 9.806 0 12-1.068 1.781-3.356 1.452-5 2-2.927.975-8.145 2.077-11 0-2.055-1.494-3.265-7.471-2-10 1.339-2.678 5.591-3.759 8-4l1 1c1.99-.995 5.591-1 9-1z" class="f"/></svg>
